<?xml version="1.0" encoding="iso-8859-1"?>
<!-- Generator: Adobe Illustrator 19.0.0, SVG Export Plug-In . SVG Version: 6.00 Build 0)  -->
<svg version="1.1" id="Layer_1" xmlns="http://www.w3.org/2000/svg" xmlns:xlink="http://www.w3.org/1999/xlink" x="0px" y="0px"
	 viewBox="0 0 512.002 512.002" style="enable-background:new 0 0 512.002 512.002;" xml:space="preserve">
<path style="fill:#77AAD4;" d="M381.232,53.785c-32.521,32.522-33.576,88.756-1.055,121.277
	c32.522,32.522,93.644,28.9,126.165-3.622L381.232,53.785z"/>
<rect x="331.793" y="264.195" style="fill:#FAC15C;" width="170.041" height="89.07"/>
<path id="SVGCleanerId_0" style="fill:#77AAD4;" d="M206.287,345.163L206.287,345.163c-15.652,0-28.34-12.688-28.34-28.34v-56.68
	c0-15.651,12.688-28.34,28.34-28.34l0,0c15.651,0,28.34,12.689,28.34,28.34v56.68C234.627,332.475,221.939,345.163,206.287,345.163z
	"/>
<g>
	<path id="SVGCleanerId_0_1_" style="fill:#77AAD4;" d="M206.287,345.163L206.287,345.163c-15.652,0-28.34-12.688-28.34-28.34
		v-56.68c0-15.651,12.688-28.34,28.34-28.34l0,0c15.651,0,28.34,12.689,28.34,28.34v56.68
		C234.627,332.475,221.939,345.163,206.287,345.163z"/>
</g>
<path style="fill:#1D71B8;" d="M234.335,256.095c0.19,1.324,0.292,2.673,0.292,4.049v56.68c0,15.652-12.688,28.34-28.34,28.34l0,0
	c-15.652,0-28.34-12.688-28.34-28.34v-56.68c0-1.375,0.103-2.725,0.292-4.049h-25.395c-3.751,18.478-20.088,32.388-39.674,32.388
	H32.199v99.244c9.182-6.408,20.343-10.176,32.388-10.176c28.553,0,52.164,21.116,56.094,48.581h49.753
	c3.93-27.466,27.541-48.582,56.094-48.582c12.045,0,23.205,3.768,32.387,10.176V256.095H234.335z"/>
<path style="fill:#FAC15C;" d="M152.43,256.095h25.81c1.965-13.733,13.771-24.291,28.048-24.291l0,0
	c14.276,0,26.082,10.558,28.047,24.291h24.583l-0.414-64.064c0-13.81-11.194-25.004-25.004-25.004H56.789
	c-13.81,0-25.003,11.194-25.003,25.004v15.482h80.97c22.359,0,40.485,18.126,40.485,40.485l0,0
	C153.241,250.771,152.961,253.479,152.43,256.095z"/>
<g>
	<circle style="fill:#F9B233;" cx="64.593" cy="434.226" r="56.68"/>
	<circle style="fill:#F9B233;" cx="226.535" cy="434.226" r="56.68"/>
	<circle style="fill:#F9B233;" cx="428.952" cy="434.226" r="56.68"/>
</g>
<path style="fill:#1D71B8;" d="M331.792,353.26v72.874h41.07c3.93-27.466,27.541-48.581,56.093-48.581
	c28.553,0,52.165,21.116,56.094,48.582h16.779V353.26L331.792,353.26L331.792,353.26z"/>
<g>
	<circle style="fill:#FFFFFF;" cx="64.593" cy="434.226" r="32.388"/>
	<circle style="fill:#FFFFFF;" cx="226.535" cy="434.226" r="32.388"/>
	<circle style="fill:#FFFFFF;" cx="428.952" cy="434.226" r="32.388"/>
</g>
<g>
	<path style="fill:#1D1D1B;" d="M64.589,474.528c-22.22,0-40.298-18.078-40.298-40.298c0-22.22,18.078-40.298,40.298-40.298
		s40.298,18.078,40.298,40.298C104.887,456.45,86.809,474.528,64.589,474.528z M64.589,409.751
		c-13.498,0-24.479,10.981-24.479,24.479s10.981,24.479,24.479,24.479s24.479-10.981,24.479-24.479S78.087,409.751,64.589,409.751z"
		/>
	<path style="fill:#1D1D1B;" d="M226.53,474.528c-22.22,0-40.298-18.078-40.298-40.298c0-22.22,18.078-40.298,40.298-40.298
		s40.298,18.078,40.298,40.298C266.827,456.45,248.75,474.528,226.53,474.528z M226.53,409.751
		c-13.498,0-24.479,10.981-24.479,24.479s10.981,24.479,24.479,24.479s24.479-10.981,24.479-24.479S240.027,409.751,226.53,409.751z
		"/>
	<rect x="56.494" y="426.316" style="fill:#1D1D1B;" width="16.194" height="15.819"/>
	<rect x="218.436" y="426.316" style="fill:#1D1D1B;" width="16.194" height="15.819"/>
	<path style="fill:#1D1D1B;" d="M428.956,474.528c-22.22,0-40.298-18.078-40.298-40.298c0-22.22,18.078-40.298,40.298-40.298
		c22.22,0,40.298,18.078,40.298,40.298C469.254,456.45,451.176,474.528,428.956,474.528z M428.956,409.751
		c-13.498,0-24.479,10.981-24.479,24.479s10.981,24.479,24.479,24.479s24.479-10.981,24.479-24.479S442.453,409.751,428.956,409.751
		z"/>
	<rect x="420.863" y="426.316" style="fill:#1D1D1B;" width="16.194" height="15.819"/>
	<rect x="194.328" y="280.383" style="fill:#1D1D1B;" width="15.819" height="16.193"/>
	<polygon style="fill:#1D1D1B;" points="153.468,328.781 89.068,328.781 89.068,304.677 104.887,304.677 104.887,312.962 
		137.649,312.962 137.649,304.677 153.468,304.677 	"/>
	<polygon style="fill:#1D1D1B;" points="153.468,369.265 89.068,369.265 89.068,345.163 104.887,345.163 104.887,353.447 
		137.649,353.447 137.649,345.163 153.468,345.163 	"/>
	<polygon style="fill:#1D1D1B;" points="226.342,150.646 169.85,150.646 169.85,134.827 210.523,134.827 210.523,37.475 
		226.342,37.475 	"/>
</g>
<rect x="210.526" y="13.183" style="fill:#F9B233;" width="15.819" height="16.193"/>
<g>
	<rect x="153.653" y="191.503" style="fill:#FFFFFF;" width="16.193" height="15.819"/>
	<rect x="186.039" y="191.503" style="fill:#FFFFFF;" width="16.194" height="15.819"/>
	<rect x="218.436" y="191.503" style="fill:#FFFFFF;" width="16.194" height="15.819"/>
</g>
<path style="fill:#1D1D1B;" d="M453.354,115.256l15.51-15.51l-11.186-11.186l-15.51,15.51l-61.587-61.587l-5.593,5.592
	c-17.551,17.552-27.218,40.888-27.218,65.711c0,22.165,7.727,43.132,21.874,59.868l-44.848,44.849v28.393h81.796v-15.819h-65.977
	v-6.022l40.217-40.215c16.734,14.148,37.702,21.875,59.868,21.875c24.822,0,48.159-9.666,65.711-27.22l5.592-5.592L453.354,115.256z
	 M440.698,190.896c-20.596,0-39.961-8.02-54.524-22.586c-28.177-28.176-29.946-72.915-5.309-103.171l108.484,108.483
	C475.637,184.811,458.634,190.896,440.698,190.896z"/>
<g>
	<rect x="356.08" y="288.672" style="fill:#FFFFFF;" width="56.68" height="15.819"/>
	<rect x="356.08" y="312.959" style="fill:#FFFFFF;" width="32.388" height="15.819"/>
</g>
<g>
	<path style="fill:#1D1D1B;" d="M509.738,256.283H323.881v56.68h-8.284v15.819h8.284v105.261h40.492
		c0,0.063-0.005,0.124-0.005,0.188c0,35.614,28.975,64.589,64.588,64.589c35.614,0,64.589-28.975,64.589-64.589
		c0-0.063-0.004-0.124-0.005-0.188h16.198L509.738,256.283L509.738,256.283z M428.956,483c-26.892,0-48.769-21.878-48.769-48.77
		c0-26.892,21.877-48.769,48.769-48.769c26.892,0,48.77,21.877,48.77,48.769C477.726,461.122,455.848,483,428.956,483z
		 M493.919,418.223h-2.385c-7.14-27.897-32.487-48.581-62.579-48.581c-30.09,0-55.438,20.685-62.578,48.581h-26.678v-57.055h154.219
		v57.055H493.919z M493.919,345.351H339.7v-73.249h154.219V345.351z"/>
	<path style="fill:#1D1D1B;" d="M266.827,382.803V328.78h8.285v-15.819h-8.285V191.163c0-17.67-14.375-32.045-32.045-32.045H56.336
		c-17.67,0-32.045,14.375-32.045,32.045V383.81C9.499,395.655,0,413.849,0,434.23c0,35.614,28.975,64.589,64.589,64.589
		s64.589-28.975,64.589-64.589c0-0.063-0.004-0.124-0.004-0.188h34.051c0,0.063-0.004,0.124-0.004,0.188
		c0,35.614,28.975,64.589,64.589,64.589s64.589-28.975,64.589-64.589C292.398,413.266,282.351,394.61,266.827,382.803z
		 M40.11,191.163c0-8.946,7.279-16.226,16.226-16.226h178.447c8.947,0,16.226,7.279,16.226,16.226v57.022H240.5
		c-4.952-14.128-18.415-24.291-34.213-24.291s-29.26,10.163-34.213,24.291h-10.513c0-0.063,0.004-0.124,0.004-0.188
		c0-26.685-21.71-48.395-48.395-48.395H40.109v-8.44H40.11z M226.717,260.143v56.68c0,11.266-9.164,20.43-20.43,20.43l0,0
		c-11.265,0-20.43-9.164-20.43-20.43v-56.68c0-11.266,9.165-20.43,20.43-20.43S226.717,248.877,226.717,260.143z M40.11,215.422
		h73.062c17.963,0,32.576,14.613,32.576,32.576c0,17.963-14.613,32.576-32.576,32.576H72.498v-32.576H56.68v32.576H40.11V215.422z
		 M64.589,483c-26.892,0-48.77-21.878-48.77-48.77c0-26.892,21.878-48.769,48.77-48.769s48.77,21.877,48.77,48.769
		C113.359,461.122,91.481,483,64.589,483z M127.168,418.223c-7.141-27.897-32.489-48.581-62.579-48.581
		c-8.661,0-16.924,1.726-24.479,4.832v-78.081h73.062c21.076,0,39.039-13.548,45.662-32.388h11.205v52.819
		c0,19.988,16.261,36.249,36.249,36.249c19.988,0,36.249-16.262,36.249-36.249v-52.819h8.473v109.963
		c-7.206-2.784-15.025-4.327-23.201-4.327c-30.091,0-55.439,20.685-62.578,48.581h-38.063V418.223z M227.809,483
		c-26.892,0-48.77-21.878-48.77-48.77c0-26.892,21.878-48.769,48.77-48.769s48.77,21.877,48.77,48.769
		C276.579,461.122,254.701,483,227.809,483z"/>
	<rect x="283.208" y="312.959" style="fill:#1D1D1B;" width="24.287" height="15.819"/>
</g>
<g>
</g>
<g>
</g>
<g>
</g>
<g>
</g>
<g>
</g>
<g>
</g>
<g>
</g>
<g>
</g>
<g>
</g>
<g>
</g>
<g>
</g>
<g>
</g>
<g>
</g>
<g>
</g>
<g>
</g>
</svg>
